<?xml version="1.0" encoding="iso-8859-1"?>
<!-- Generator: Adobe Illustrator 19.0.0, SVG Export Plug-In . SVG Version: 6.00 Build 0)  -->
<svg version="1.1" id="Capa_1" xmlns="http://www.w3.org/2000/svg" xmlns:xlink="http://www.w3.org/1999/xlink" x="0px" y="0px"
	 viewBox="0 0 197.973 197.973" style="enable-background:new 0 0 197.973 197.973;" xml:space="preserve">
<path style="fill:#ED5481;" d="M64.853,112.64H6.827V59.733c0-16.024,12.989-29.013,29.013-29.013l0,0
	c16.024,0,29.013,12.989,29.013,29.013V112.64z"/>
<path d="M68.267,116.053H3.413v-56.32c0-17.881,14.546-32.427,32.427-32.427s32.427,14.546,32.427,32.427V116.053z M10.24,109.227
	h51.2V59.733c0-14.116-11.484-25.6-25.6-25.6s-25.6,11.484-25.6,25.6V109.227z"/>
<path style="fill:#FFFFFF;" d="M64.853,112.64H6.827v52.907c0,16.024,12.989,29.013,29.013,29.013l0,0
	c16.024,0,29.013-12.989,29.013-29.013V112.64z"/>
<path d="M35.84,197.973c-17.881,0-32.427-14.546-32.427-32.427v-56.32h64.853v56.32C68.267,183.427,53.721,197.973,35.84,197.973z
	 M10.24,116.053v49.493c0,14.116,11.484,25.6,25.6,25.6s25.6-11.484,25.6-25.6v-49.493H10.24z"/>
<path style="fill:#ED5481;" d="M64.611,136.291c-13.329,13.329-13.329,34.942,0,48.271c13.329,13.329,34.942,13.329,48.271,0
	L64.611,136.291z"/>
<path d="M88.747,197.955c-9.615,0-19.231-3.661-26.549-10.979c-14.64-14.64-14.64-38.46,0-53.1l2.413-2.413l53.1,53.1l-2.415,2.413
	C107.977,194.295,98.362,197.955,88.747,197.955z M64.744,141.251c-9.641,12.052-8.882,29.737,2.28,40.9
	c11.162,11.158,28.848,11.918,40.897,2.28L64.744,141.251z"/>
<path style="fill:#FFFFFF;" d="M64.611,136.291c13.329-13.329,34.942-13.329,48.271,0c13.329,13.329,13.329,34.942,0,48.271
	L64.611,136.291z"/>
<path d="M112.882,189.391l-53.1-53.1l2.415-2.413c14.638-14.636,38.46-14.636,53.098,0c14.64,14.64,14.64,38.46,0,53.1
	L112.882,189.391z M69.572,136.424l43.177,43.18c9.641-12.052,8.881-29.737-2.28-40.9C99.308,127.543,81.62,126.781,69.572,136.424z
	"/>
<path style="fill:#ED5481;" d="M33.551,44.385c-7.27,0.305-13.071,6.296-13.071,13.641"/>
<path d="M23.893,58.027h-6.827c0-9.177,7.178-16.669,16.341-17.051l0.287,6.82C28.198,48.027,23.893,52.519,23.893,58.027z"/>
<circle style="fill:#FEDA4F;" cx="157.013" cy="37.547" r="34.133"/>
<path d="M157.013,75.093c-20.704,0-37.547-16.843-37.547-37.547S136.31,0,157.013,0s37.547,16.843,37.547,37.547
	S177.717,75.093,157.013,75.093z M157.013,6.827c-16.939,0-30.72,13.781-30.72,30.72s13.781,30.72,30.72,30.72
	s30.72-13.781,30.72-30.72S173.952,6.827,157.013,6.827z"/>
<path style="fill:#FBAD4A;" d="M182.613,102.4h-51.2c-4.693,0-8.533-3.84-8.533-8.533l0,0c0-4.693,3.84-8.533,8.533-8.533h51.2
	c4.693,0,8.533,3.84,8.533,8.533l0,0C191.147,98.56,187.307,102.4,182.613,102.4z"/>
<path d="M182.613,105.813h-51.2c-6.588,0-11.947-5.361-11.947-11.947s5.359-11.947,11.947-11.947h51.2
	c6.588,0,11.947,5.361,11.947,11.947S189.201,105.813,182.613,105.813z M131.413,88.747c-2.823,0-5.12,2.297-5.12,5.12
	s2.297,5.12,5.12,5.12h51.2c2.823,0,5.12-2.297,5.12-5.12s-2.297-5.12-5.12-5.12H131.413z"/>
<path style="fill:#FBAD4A;" d="M182.613,136.533h-51.2c-4.693,0-8.533-3.84-8.533-8.533l0,0c0-4.693,3.84-8.533,8.533-8.533h51.2
	c4.693,0,8.533,3.84,8.533,8.533l0,0C191.147,132.693,187.307,136.533,182.613,136.533z"/>
<path d="M182.613,139.947h-51.2c-6.588,0-11.947-5.361-11.947-11.947s5.359-11.947,11.947-11.947h51.2
	c6.588,0,11.947,5.361,11.947,11.947S189.201,139.947,182.613,139.947z M131.413,122.88c-2.823,0-5.12,2.297-5.12,5.12
	c0,2.823,2.297,5.12,5.12,5.12h51.2c2.823,0,5.12-2.297,5.12-5.12c0-2.823-2.297-5.12-5.12-5.12H131.413z"/>
<path style="fill:#FEDA4F;" d="M182.613,119.467h-51.2c-4.693,0-8.533-3.84-8.533-8.533l0,0c0-4.693,3.84-8.533,8.533-8.533h51.2
	c4.693,0,8.533,3.84,8.533,8.533l0,0C191.147,115.627,187.307,119.467,182.613,119.467z"/>
<path d="M182.613,122.88h-51.2c-6.588,0-11.947-5.361-11.947-11.947s5.359-11.947,11.947-11.947h51.2
	c6.588,0,11.947,5.361,11.947,11.947S189.201,122.88,182.613,122.88z M131.413,105.813c-2.823,0-5.12,2.297-5.12,5.12
	s2.297,5.12,5.12,5.12h51.2c2.823,0,5.12-2.297,5.12-5.12s-2.297-5.12-5.12-5.12H131.413z"/>
<path d="M155.204,59.017v-5.169c-2.97-0.053-6.042-0.973-7.834-2.253l1.229-3.43c1.843,1.227,4.506,2.2,7.371,2.2
	c3.635,0,6.093-2.099,6.093-5.016c0-2.816-1.997-4.557-5.786-6.093c-5.224-2.046-8.448-4.403-8.448-8.856
	c0-4.25,3.023-7.473,7.731-8.243v-5.169h3.173v4.966c3.072,0.101,5.171,0.92,6.656,1.79l-1.28,3.379
	c-1.075-0.613-3.174-1.741-6.451-1.741c-3.942,0-5.427,2.353-5.427,4.403c0,2.661,1.894,3.994,6.349,5.837
	c5.274,2.15,7.936,4.809,7.936,9.366c0,4.047-2.816,7.834-8.09,8.707v5.323h-3.222V59.017z"/>
<g>
</g>
<g>
</g>
<g>
</g>
<g>
</g>
<g>
</g>
<g>
</g>
<g>
</g>
<g>
</g>
<g>
</g>
<g>
</g>
<g>
</g>
<g>
</g>
<g>
</g>
<g>
</g>
<g>
</g>
</svg>
