<?xml version="1.0" encoding="iso-8859-1"?>
<!-- Generator: Adobe Illustrator 19.0.0, SVG Export Plug-In . SVG Version: 6.00 Build 0)  -->
<svg version="1.1" id="Capa_1" xmlns="http://www.w3.org/2000/svg" xmlns:xlink="http://www.w3.org/1999/xlink" x="0px" y="0px"
	 viewBox="0 0 512 512" style="enable-background:new 0 0 512 512;" xml:space="preserve">
<path style="fill:#FD3C65;" d="M360.65,415.003L319,346.443v-49.79h140v120h-97.35L360.65,415.003z"/>
<path style="fill:#57555C;" d="M482,256.653L376.03,71.363c-11.6-15.47-32.6-20.43-49.89-11.78l-37.27,18.64
	c-7.89,3.94-12.87,12-12.87,20.81c0,13.02,12.23,22.56,24.85,19.41l35.6-18.01L399,256.653H113l62.43-156.01l35.72,17.8
	c12.62,3.15,24.85-6.39,24.85-19.41c0-8.81-4.98-16.87-12.87-20.81l-37.27-18.64c-17.29-8.65-38.29-3.69-49.89,11.78L30,256.653
	c-11.05,0-20,8.95-20,20v160c0,11.05,8.95,20,20,20h131.68c7.02,0,13.53-3.69,17.15-9.71l46.88-73.14
	c3.19-5.32,7.66-9.61,12.88-12.57c5.23-2.95,11.21-4.58,17.41-4.58c12.41,0,23.91,6.51,30.29,17.15l46.88,73.14
	c3.62,6.02,10.13,9.71,17.15,9.71H482c11.05,0,20-8.95,20-20v-160C502,265.603,493.05,256.653,482,256.653z M193,346.453
	l-42.65,70.2H53v-120h140V346.453z M459,416.653h-97.35l-1-1.65L319,346.443v-49.79h140V416.653z"/>
<path style="fill:#4DBBEB;" d="M53,416.653v-120h140v49.8l-42.65,70.2H53z"/>
<path d="M419,366.653c5.52,0,10-4.48,10-10s-4.48-10-10-10s-10,4.48-10,10S413.48,366.653,419,366.653z"/>
<path d="M113,365.653c5.52,0,10-4.48,10-10s-4.48-10-10-10s-10,4.48-10,10S107.48,365.653,113,365.653z"/>
<path d="M488.167,247.293L384.711,66.398c-0.205-0.359-0.433-0.705-0.681-1.035c-14.511-19.351-40.739-25.543-62.363-14.724
	l-37.265,18.637C273.052,74.945,266,86.347,266,99.033c0,9.303,4.204,17.922,11.534,23.647c7.33,5.726,16.71,7.719,25.737,5.465
	c0.725-0.181,1.426-0.442,2.093-0.779l25.86-13.083l53,132.37H127.773l52.91-132.22l26.008,12.96
	c0.65,0.324,1.333,0.576,2.038,0.752c9.024,2.253,18.406,0.262,25.737-5.465c7.33-5.726,11.534-14.345,11.534-23.647
	c0-12.686-7.052-24.088-18.397-29.754L190.335,50.64c-21.631-10.819-47.855-4.627-62.365,14.724
	c-0.248,0.331-0.476,0.676-0.681,1.035L23.833,247.293C10.24,250.145,0,262.224,0,276.653v160c0,16.542,13.458,30,30,30h131.68
	c10.413,0,20.223-5.523,25.64-14.423l46.81-73.031c0.054-0.084,0.106-0.168,0.157-0.253c2.245-3.744,5.439-6.861,9.217-9.003
	c3.815-2.152,8.138-3.29,12.497-3.29c8.847,0,17.167,4.71,21.714,12.292c0.051,0.085,0.104,0.17,0.157,0.254l46.81,73.031
	c5.417,8.9,15.227,14.423,25.64,14.423H482c16.542,0,30-13.458,30-30v-160C512,262.224,501.76,250.145,488.167,247.293z
	 M339.98,91.076c-2.624-0.991-5.541-0.833-8.045,0.433l-34.426,17.417c-2.721,0.418-5.469-0.292-7.665-2.008
	c-2.443-1.908-3.845-4.783-3.845-7.885c0-5.058,2.812-9.604,7.343-11.866l37.271-18.64c12.802-6.406,28.292-2.872,37.065,8.378
	l97.081,169.749h-58.993L345.733,96.715C344.691,94.112,342.604,92.066,339.98,91.076z M144.32,76.904
	c8.773-11.249,24.263-14.784,37.067-8.377l37.274,18.642c4.526,2.26,7.338,6.806,7.338,11.864c0,3.103-1.401,5.977-3.845,7.885
	c-2.203,1.721-4.964,2.434-7.69,2.003L179.89,91.693c-2.501-1.247-5.41-1.39-8.02-0.395s-4.687,3.036-5.725,5.63L106.23,246.653
	H47.239L144.32,76.904z M492,436.653c0,5.514-4.486,10-10,10H350.32c-3.488,0-6.776-1.864-8.581-4.863
	c-0.049-0.082-0.099-0.163-0.15-0.243l-46.805-73.023c-8.157-13.495-23.003-21.871-38.784-21.871c-7.795,0-15.515,2.03-22.343,5.881
	c-6.747,3.826-12.43,9.353-16.441,15.99l-46.805,73.022c-0.052,0.081-0.102,0.161-0.15,0.243c-1.805,3-5.093,4.863-8.581,4.863H30
	c-5.514,0-10-4.486-10-10v-160c0-5.514,4.486-10,10-10h83h286h83c5.514,0,10,4.486,10,10V436.653z"/>
<path d="M459,286.653H319c-5.522,0-10,4.477-10,10v49.79c0,1.831,0.503,3.627,1.453,5.192l41.646,68.551l1,1.65
	c1.813,2.99,5.055,4.817,8.552,4.817H459c5.522,0,10-4.477,10-10v-120C469,291.13,464.522,286.653,459,286.653z M449,406.653
	h-65.857l14.659-14.659c3.905-3.905,3.905-10.237,0-14.143c-3.906-3.905-10.236-3.905-14.143,0l-21.075,21.075L329,343.643v-36.991
	h120V406.653z"/>
<path d="M193,286.653H53c-5.522,0-10,4.477-10,10v119.995c-0.004,5.527,4.512,10.005,10,10.005h97.35
	c3.493,0,6.732-1.822,8.546-4.808l42.65-70.2c0.951-1.565,1.454-3.361,1.454-5.192v-49.8C203,291.13,198.522,286.653,193,286.653z
	 M183,343.653l-38.275,63H77.143l14.659-14.659c3.905-3.905,3.905-10.237,0-14.142s-10.235-3.905-14.143,0L63,392.51v-85.858h120
	V343.653z"/>
<g>
</g>
<g>
</g>
<g>
</g>
<g>
</g>
<g>
</g>
<g>
</g>
<g>
</g>
<g>
</g>
<g>
</g>
<g>
</g>
<g>
</g>
<g>
</g>
<g>
</g>
<g>
</g>
<g>
</g>
</svg>
